<svg id="Layer_1" data-name="Layer 1" xmlns="http://www.w3.org/2000/svg" viewBox="0 0 27.61 27.61"><defs><style>.cls-1{fill:#828282;}</style></defs><title>facebook-icon-rev2</title><path class="cls-1" d="M23.57,4A13.82,13.82,0,1,1,13.8,0,13.76,13.76,0,0,1,23.57,4ZM22.35,22.35a11.94,11.94,0,0,0,3.29-6.13c-.36.54-.71.74-.92-.46-.22-1.95-2-.71-3.14-1.4-1.19.8-3.86-1.55-3.4,1.1.69,1.2,3.77-1.6,2.24.93-1,1.77-3.58,5.69-3.24,7.72,0,3-3,.62-4.08-.36-.71-2-.24-5.41-2.1-6.37-2-.09-3.75-.27-4.53-2.52-.47-1.62.5-4,2.23-4.39,2.53-1.59,3.43,1.86,5.81,1.93.73-.77,2.74-1,2.91-1.88-1.56-.28,2-1.31-.15-1.9-1.17.14-1.93,1.21-1.31,2.13-2.27.53-2.34-3.29-4.52-2.09-.06,1.91-3.57.62-1.22.24.81-.36-1.31-1.38-.17-1.19.57,0,2.47-.7,1.95-1.15,1.06-.65,1.95,1.57,3,0,.75-1.25-.31-1.48-1.25-.84-.53-.59.93-1.87,2.22-2.42A2.48,2.48,0,0,1,17.11,3c.64.75,1.84.88,1.91-.09A12.14,12.14,0,0,0,6.6,4.11c.55.25.87.57.33,1C6.52,6.33,4.83,8,3.34,7.76a11.8,11.8,0,0,0-1.49,4.33c1.24.41,1.53,1.22,1.26,1.5a4.08,4.08,0,0,0-1.22,2.19,12.09,12.09,0,0,0,20.46,6.57Z"/></svg>