<svg id="Layer_1" data-name="Layer 1" xmlns="http://www.w3.org/2000/svg" viewBox="0 0 24 24"><defs><style>.cls-1{fill:red;}</style></defs><title>filter</title><path class="cls-1" d="M22.7,0H1.3A1,1,0,0,0,.41.55,1,1,0,0,0,.48,1.61l7.84,11h0A2.21,2.21,0,0,1,8.77,14v9a1,1,0,0,0,.29.71,1,1,0,0,0,.71.3,1.1,1.1,0,0,0,.4-.08l4.4-1.68a1,1,0,0,0,.66-.94V14a2.21,2.21,0,0,1,.44-1.33h0l7.84-11A1,1,0,0,0,23.59.55,1,1,0,0,0,22.7,0Zm-8,11.94A3.43,3.43,0,0,0,14,14v7.16l-4,1.53V14a3.43,3.43,0,0,0-.68-2.05L1.7,1.22H22.3Z"/></svg>