<svg id="Layer_1" data-name="Layer 1" xmlns="http://www.w3.org/2000/svg" viewBox="0 0 20 17"><defs><style>.cls-1{fill:red;}</style></defs><title>rank</title><path class="cls-1" d="M.75.25h18.5A.76.76,0,0,1,20,1h0a.76.76,0,0,1-.75.75H.75A.76.76,0,0,1,0,1H0A.76.76,0,0,1,.75.25Z"/><path class="cls-1" d="M2.75,5.25h14.5A.76.76,0,0,1,18,6h0a.76.76,0,0,1-.75.75H2.75A.76.76,0,0,1,2,6H2A.76.76,0,0,1,2.75,5.25Z"/><path class="cls-1" d="M5.75,10.25h8.5A.76.76,0,0,1,15,11h0a.76.76,0,0,1-.75.75H5.75A.76.76,0,0,1,5,11H5A.76.76,0,0,1,5.75,10.25Z"/><path class="cls-1" d="M7.75,15.25h4.5A.76.76,0,0,1,13,16h0a.76.76,0,0,1-.75.75H7.75A.76.76,0,0,1,7,16H7A.76.76,0,0,1,7.75,15.25Z"/></svg>