<?xml version="1.0" encoding="utf-8"?>
<!-- Generator: Adobe Illustrator 23.0.3, SVG Export Plug-In . SVG Version: 6.00 Build 0)  -->
<svg version="1.1" id="Layer_1" xmlns="http://www.w3.org/2000/svg" xmlns:xlink="http://www.w3.org/1999/xlink" x="0px" y="0px"
	 viewBox="0 0 24 24" style="enable-background:new 0 0 24 24;" xml:space="preserve">
<style type="text/css">
	.st0{fill:#FF0000;}
</style>
<path class="st0" d="M10.6,0C4.7,0,0,4.7,0,10.6c0,5.8,4.7,10.6,10.6,10.6c5.8,0,10.6-4.7,10.6-10.6C21.1,4.7,16.4,0,10.6,0z
	 M10.6,19.2c-4.8,0-8.6-3.9-8.6-8.6C2,5.8,5.8,2,10.6,2c4.8,0,8.6,3.9,8.6,8.6C19.2,15.3,15.3,19.2,10.6,19.2z"/>
<path class="st0" d="M23.7,22.3l-5.6-5.6c-0.4-0.4-1-0.4-1.4,0c-0.4,0.4-0.4,1,0,1.4l5.6,5.6c0.2,0.2,0.4,0.3,0.7,0.3
	c0.2,0,0.5-0.1,0.7-0.3C24.1,23.3,24.1,22.7,23.7,22.3z"/>
</svg>
